<?xml version="1.0" encoding="UTF-8" standalone="no"?>
<!-- Created by Flowgorithm 2.22.1 (http://flowgorithm.org) -->

<svg xmlns:svg="http://www.w3.org/2000/svg" xmlns="http://www.w3.org/2000/svg" version="1.1" width="925" height="1350">
	<rect x="0" y="0" width="925" height="1350" fill="#FFFFFF"/>
	<g>
		<polyline fill="none" stroke="#000000" stroke-width="6" stroke-dasharray="none" points="375,200 375,261"/>
		<polygon fill="#000000" stroke="none" points="375,275 388,250 361,250"/>
		<polyline fill="none" stroke="#000000" stroke-width="6" stroke-dasharray="none" points="375,825 375,1136"/>
		<polygon fill="#000000" stroke="none" points="375,1150 388,1125 361,1125"/>
		<g>
			<path fill="#FFFFFF" stroke="#000000" stroke-width="3" stroke-dasharray="none" d="M 150,100 A 50,50 0 0,0 150,200 L 600,200 A 50,50 0 0,0 600,100 Z"/>
			<polyline fill="none" stroke="#000000" stroke-width="3" stroke-dasharray="none" points="150,100 150,200"/>
			<polyline fill="none" stroke="#000000" stroke-width="3" stroke-dasharray="none" points="600,100 600,200"/>
			<text x="375" y="115" fill="#000000" font-family="Arial" font-size="32pt" text-anchor="middle" direction="ltr">
				<tspan x="375" dy="50" unicode-bidi="embed">pegaCotacaoNova</tspan>
			</text>
		</g>
		<g>
			<path fill="#FFFFFF" stroke="#000000" stroke-width="3" stroke-dasharray="none" d="M 175,1150 A 50,50 0 0,0 175,1250 L 575,1250 A 50,50 0 0,0 575,1150 Z"/>
			<text x="375" y="1165" fill="#000000" font-family="Arial" font-size="32pt" text-anchor="middle" direction="ltr">
				<tspan x="375" dy="50" unicode-bidi="embed">Return Boolean ok</tspan>
			</text>
		</g>
		<g>
			<polyline fill="none" stroke="#000000" stroke-width="6" stroke-dasharray="none" points="375,375 375,436"/>
			<polygon fill="#000000" stroke="none" points="375,450 388,425 361,425"/>
			<polyline fill="none" stroke="#000000" stroke-width="6" stroke-dasharray="none" points="375,550 375,611"/>
			<polygon fill="#000000" stroke="none" points="375,625 388,600 361,600"/>
			<g>
				<path fill="#FFFFFF" stroke="#000000" stroke-width="3" stroke-dasharray="none" d="M 200,275 L 200,375 L 550,375 L 550,325 L 500,275 Z"/>
				<polyline fill="none" stroke="#000000" stroke-width="3" stroke-dasharray="none" points="500,275 500,325 550,325"/>
				<text x="350" y="290" fill="#000000" font-family="Arial" font-size="32pt" text-anchor="middle" direction="ltr">
					<tspan x="350" dy="50" unicode-bidi="embed">Boolean ok</tspan>
				</text>
			</g>
			<g>
				<path fill="#FFFFFF" stroke="#000000" stroke-width="3" stroke-dasharray="none" d="M 225,450 L 225,550 L 525,550 L 525,500 L 475,450 Z"/>
				<polyline fill="none" stroke="#000000" stroke-width="3" stroke-dasharray="none" points="475,450 475,500 525,500"/>
				<text x="350" y="465" fill="#000000" font-family="Arial" font-size="32pt" text-anchor="middle" direction="ltr">
					<tspan x="350" dy="50" unicode-bidi="embed">Integer x</tspan>
				</text>
			</g>
			<g>
				<polyline fill="none" stroke="#000000" stroke-width="6" stroke-dasharray="none" points="550,725 675,725 675,886"/>
				<polygon fill="#000000" stroke="none" points="675,900 688,875 661,875"/>
				<polyline fill="none" stroke="#000000" stroke-width="6" stroke-dasharray="none" points="675,1000 675,1075 425,1075 425,838"/>
				<polygon fill="#000000" stroke="none" points="425,825 411,849 438,849"/>
				<g>
					<path fill="#FFFFFF" stroke="#000000" stroke-width="3" stroke-dasharray="none" d="M 525,900 L 525,1000 L 825,1000 L 825,900 Z"/>
					<text x="675" y="915" fill="#000000" font-family="Arial" font-size="32pt" text-anchor="middle" direction="ltr">
						<tspan x="675" dy="50" unicode-bidi="embed">ok = true</tspan>
					</text>
				</g>
				<g>
					<path fill="#FFFFFF" stroke="#000000" stroke-width="3" stroke-dasharray="none" d="M 375,625 L 200,725 L 375,825 L 550,725 Z"/>
					<text x="375" y="690" fill="#000000" font-family="Arial" font-size="32pt" text-anchor="middle" direction="ltr">
						<tspan x="375" dy="50" unicode-bidi="embed">x = 0 to 7</tspan>
					</text>
				</g>
				<text x="625" y="640" fill="#000000" font-family="Arial" font-size="32pt" text-anchor="middle" direction="ltr">
					<tspan x="625" dy="50" unicode-bidi="embed">Next</tspan>
				</text>
				<text x="287" y="840" fill="#000000" font-family="Arial" font-size="32pt" text-anchor="middle" direction="ltr">
					<tspan x="287" dy="50" unicode-bidi="embed">Done</tspan>
				</text>
			</g>
		</g>
	</g>
</svg>
